<?xml version="1.0" encoding="UTF-8" standalone="no"?>
<!-- Created with Inkscape (http://www.inkscape.org/) -->

<svg
   xmlns:dc="http://purl.org/dc/elements/1.1/"
   xmlns:cc="http://creativecommons.org/ns#"
   xmlns:rdf="http://www.w3.org/1999/02/22-rdf-syntax-ns#"
   xmlns:svg="http://www.w3.org/2000/svg"
   xmlns="http://www.w3.org/2000/svg"
   xmlns:sodipodi="http://sodipodi.sourceforge.net/DTD/sodipodi-0.dtd"
   xmlns:inkscape="http://www.inkscape.org/namespaces/inkscape"
   version="1.1"
   id="svg4317"
   width="400"
   height="270"
   viewBox="0 0 400 270"
   sodipodi:docname="Assnat.svg"
   inkscape:version="0.92.3 (2405546, 2018-03-11)">
  <metadata
     id="metadata4323">
    <rdf:RDF>
      <cc:Work
         rdf:about="">
        <dc:format>image/svg+xml</dc:format>
        <dc:type
           rdf:resource="http://purl.org/dc/dcmitype/StillImage" />
        <dc:title></dc:title>
      </cc:Work>
    </rdf:RDF>
  </metadata>
  <defs
     id="defs4321" />
  <sodipodi:namedview
     pagecolor="#ffffff"
     bordercolor="#666666"
     borderopacity="1"
     objecttolerance="10"
     gridtolerance="10"
     guidetolerance="10"
     inkscape:pageopacity="0"
     inkscape:pageshadow="2"
     inkscape:window-width="1920"
     inkscape:window-height="1001"
     id="namedview4319"
     showgrid="false"
     inkscape:zoom="1.3109375"
     inkscape:cx="462.00918"
     inkscape:cy="22.107083"
     inkscape:window-x="-9"
     inkscape:window-y="-9"
     inkscape:window-maximized="1"
     inkscape:current-layer="svg4317" />
  <path
     style="fill:#001f96;fill-opacity:1;stroke:none;stroke-width:1.7891134px;stroke-linecap:butt;stroke-linejoin:miter;stroke-opacity:1"
     d="M 108.18987,187.12493 C 107.42813,153.42363 80.089864,109.94066 49.805543,109.44001 19.932465,109.21294 3.7600583,129.40036 3.2428391,149.97127 2.712468,171.06525 16.475107,192.69082 48.840514,193.88014 36.35508,169.7629 53.808865,159.86515 65.487283,160.10409 c 12.250832,0.50378 23.365164,12.92205 25.814557,26.77959 5.165523,2.23904 14.33684,5.25996 16.88803,0.24125 z"
     id="path4344"
     inkscape:connector-curvature="0"
     sodipodi:nodetypes="ccccccc" />
  <path
     style="fill:#001f96;fill-opacity:1;stroke:none;stroke-width:1.7891134px;stroke-linecap:butt;stroke-linejoin:miter;stroke-opacity:1"
     d="m 134.7282,188.81374 c 9.18347,-34.64414 31.18417,-79.89649 65.13954,-101.32817 26.39352,-16.65885 60.47124,-28.179716 92.88415,-11.82162 -4.57362,5.8781 -11.23598,12.20782 -19.78313,16.88803 -18.45447,-5.93869 -41.79177,-9.69497 -73.34228,8.68527 -15.71613,9.11278 -56.76339,63.53553 -60.04675,86.3531 -2.16543,0.002 -3.17358,1.41642 -4.85153,1.22339 z"
     id="path4346"
     inkscape:connector-curvature="0"
     sodipodi:nodetypes="ccccccc" />
  <path
     style="fill:#149de1;fill-opacity:1;fill-rule:evenodd;stroke-width:1.7891134"
     d="M 121.01679,3.558137 C 100.23584,33.088205 70.550152,46.422556 70.268175,74.94095 c 1.018331,48.3229 29.007402,35.18492 48.665985,105.66951 H 83.459392 c -1.804365,0 -3.256746,1.45238 -3.256746,3.25676 v 11.46151 c 0,1.80435 1.452381,3.25674 3.256746,3.25674 h 31.784718 c 5.55472,10.67653 5.60878,25.5444 -4.34699,43.02608 0.61777,9.94858 2.42847,9.9235 10.23848,26.09939 10.80821,-17.77559 11.08761,-28.82848 11.08761,-28.82848 0,0 14.977,-3.89088 15.18301,-15.8679 -9.04347,-5.24947 -13.32915,-18.8671 -14.7532,-24.42909 h 26.44184 c 1.80436,0 3.25674,-1.45239 3.25674,-3.25674 v -11.46151 c 0,-1.80438 -1.45238,-3.25676 -3.25674,-3.25676 H 122.05462 C 146.19633,109.77615 172.56161,118.07547 172.48875,76.38763 172.00446,46.03448 139.56223,31.833947 121.01679,3.558137 Z"
     id="rect4332"
     inkscape:connector-curvature="0" />
  <path
     style="fill:#001f96;fill-opacity:1;stroke:none;stroke-width:1.7891134px;stroke-linecap:butt;stroke-linejoin:miter;stroke-opacity:1"
     d="m 110.04525,200.41238 c 9.91,10.11733 5.22494,33.58447 -3.66779,38.12796 -4.46037,-1.8111 -11.16095,-8.241 -12.197529,-15.60944 7.079429,-3.49385 13.354439,-9.98683 15.865319,-22.51852 z"
     id="path4342"
     inkscape:connector-curvature="0"
     sodipodi:nodetypes="cccc" />
  <path
     style="fill:#001f96;fill-opacity:1;stroke:none;stroke-width:1.7891134px;stroke-linecap:butt;stroke-linejoin:miter;stroke-opacity:1"
     d="m 197.69642,148.28247 c -1.2714,-2.28874 31.31589,-117.820469 33.29354,-118.939971 1.97765,-1.119484 6.64392,-0.03363 7.9615,0.96503 1.31757,0.998755 16.31015,131.091951 17.6118,137.034291 1.64283,-5.48751 4.05454,-19.86717 5.54891,-20.26564 1.49438,-0.39847 4.12726,0.79886 4.82515,1.44755 0.6979,0.64868 -7.37427,31.61569 -8.92653,32.08725 -1.55225,0.47156 -4.00817,-1.13491 -5.06641,-2.41258 -1.05824,-1.27768 -15.68856,-127.197646 -16.88801,-135.345465 -2.22303,8.655748 -29.26474,107.506035 -30.39845,107.842115 -1.13371,0.33609 -6.69011,-0.1238 -7.9615,-2.41258 z"
     id="path4348"
     inkscape:connector-curvature="0"
     sodipodi:nodetypes="zzzczzzzczz" />
  <path
     style="fill:#001f96;fill-opacity:1;stroke:none;stroke-width:1.7891134px;stroke-linecap:butt;stroke-linejoin:miter;stroke-opacity:1"
     d="m 281.32247,106.92642 c 0.186,3.43298 -0.0256,3.68183 0.0854,5.62962 -6.1158,-1.29351 -10.82505,-1.31178 -10.83276,0.85298 -0.093,4.2972 10.64595,7.12146 10.49157,14.84175 -0.23967,9.17035 -15.50444,8.46787 -20.13019,6.14142 0.0657,-2.83825 -0.0444,-2.51623 -0.1705,-5.54434 3.88291,1.15146 12.43623,3.44633 12.53871,-1.10886 0.0179,-4.5552 -10.3851,-5.62068 -10.91806,-15.01236 0.23471,-7.42983 10.47604,-7.95373 18.93588,-5.80021 z"
     id="path4350"
     inkscape:connector-curvature="0"
     sodipodi:nodetypes="ccccccccc" />
  <path
     sodipodi:nodetypes="ccccccccc"
     inkscape:connector-curvature="0"
     id="path4352"
     d="m 306.57051,106.75582 c 0.186,3.43297 -0.0256,3.68184 0.0853,5.62963 -6.11579,-1.29351 -10.82504,-1.31178 -10.83275,0.85298 -0.093,4.29718 10.64595,7.12145 10.49157,14.84175 -0.23967,9.17033 -15.50444,8.46787 -20.13019,6.14142 0.0657,-2.83825 -0.0444,-2.51623 -0.1705,-5.54434 3.88291,1.15145 12.43623,3.44633 12.53871,-1.10888 0.0179,-4.55519 -10.3851,-5.62066 -10.91806,-15.01234 0.23471,-7.42983 10.47604,-7.95374 18.93588,-5.80022 z"
     style="fill:#001f96;fill-opacity:1;stroke:none;stroke-width:1.7891134px;stroke-linecap:butt;stroke-linejoin:miter;stroke-opacity:1" />
  <path
     style="fill:#001f96;fill-opacity:1;stroke:none;stroke-width:1.7891134px;stroke-linecap:butt;stroke-linejoin:miter;stroke-opacity:1"
     d="m 312.02955,134.90396 1.53534,-28.40403 7.67677,0.1705 c 0,0 -0.0107,1.91952 0,4.09428 9.13218,-8.61941 19.10985,-4.34631 20.98316,0.68238 1.248,3.39717 0,23.54209 0,23.54209 l -8.01794,-0.1705 c 0,0 0.64021,-13.65784 0.51177,-18.76544 -0.0744,-2.95846 -7.33028,-6.85248 -12.9652,0.34118 -1.11465,3.06663 -1.36475,18.42426 -1.36475,18.42426 z"
     id="path4354"
     inkscape:connector-curvature="0"
     sodipodi:nodetypes="ccccccccccc" />
  <path
     style="fill:#001f96;fill-opacity:1;stroke:none;stroke-width:1.7891134px;stroke-linecap:butt;stroke-linejoin:miter;stroke-opacity:1"
     d="m 374.05567,134.65141 c 0,0 0.70597,-17.40501 0.84439,-22.85914 -2.03289,-4.54941 -5.89382,-5.64709 -10.73595,-5.54892 -4.84213,0.0982 -8.95925,0.31431 -12.24381,1.32691 -0.6204,1.92132 -0.62966,2.43393 -0.42222,5.24735 3.48053,-1.37177 13.62006,-4.80579 15.62143,0.42221 1.94107,6.37395 -19.68014,2.52691 -19.84343,14.11357 0.0179,6.15836 3.20309,9.05039 15.01828,8.02181 0.5364,-1.69206 0.92292,-2.54808 1.6888,-4.76484 -6.2909,1.82429 -9.02477,-0.57679 -9.10746,-3.19666 0.15851,-2.86114 10.05875,-4.65223 12.5454,-6.87585 -0.36857,3.35469 -0.60463,9.19842 -0.84442,14.17389 2.37335,0.058 7.47899,-0.0603 7.47899,-0.0603 z"
     id="path4356"
     inkscape:connector-curvature="0"
     sodipodi:nodetypes="cccccccccccccc" />
  <path
     style="fill:#001f96;fill-opacity:1;stroke:none;stroke-width:1.7891134px;stroke-linecap:butt;stroke-linejoin:miter;stroke-opacity:1"
     d="m 385.15351,101.35787 6.99647,-1.32691 v 6.87585 l 6.99647,0.24126 v 5.42828 l -7.23772,-0.12059 c 0,0 -0.41507,9.3807 -0.60314,14.95797 1.01326,2.26398 3.76857,2.93068 7.11709,2.17132 -0.31347,1.69777 -0.34099,2.33643 -0.60314,5.18704 -3.61374,0.83711 -9.53798,1.69708 -12.78665,-1.08565 -3.04788,-2.61075 -0.60315,-21.47192 -0.60315,-21.47192 h -3.86012 v -5.30768 h 4.222 z"
     id="path4358"
     inkscape:connector-curvature="0"
     sodipodi:nodetypes="cccccccccsccccc" />
  <path
     style="opacity:1;fill:#001f96;fill-opacity:1;stroke:none;stroke-width:1.7891134px;stroke-linecap:butt;stroke-linejoin:miter;stroke-opacity:1"
     d="m 206.77193,153.49772 c -6.63985,-0.0963 -14.78223,4.19323 -14.66932,13.47775 0.0782,6.43506 3.28825,13.2083 13.98792,13.30653 6.52371,0.0599 14.53377,-3.54223 14.58547,-13.05144 0.0517,-9.49767 -5.77041,-13.61487 -13.90407,-13.73284 z m -0.0839,4.43784 c 5.60794,-0.001 8.55556,3.30063 8.61359,8.69745 0.058,5.39683 -3.14612,9.62386 -8.86868,9.46973 -5.72257,-0.15423 -8.96353,-3.71345 -8.70096,-9.89604 0.21916,-5.1607 3.94581,-8.27001 8.95605,-8.27114 z"
     id="path4360"
     inkscape:connector-curvature="0"
     sodipodi:nodetypes="scccssccss" />
  <path
     style="fill:#001f96;fill-opacity:1;stroke:none;stroke-width:1.7891134px;stroke-linecap:butt;stroke-linejoin:miter;stroke-opacity:1"
     d="m 224.77028,160.6638 5.71493,-0.0853 c 0,0 -1.29567,7.88363 -0.51179,13.3064 0.28776,1.99071 2.64341,2.27584 4.26487,2.13243 1.62145,-0.14349 2.62266,-0.47015 4.00899,-2.98541 1.38633,-2.51526 0.93826,-12.19755 0.93826,-12.19755 h 5.28844 l -0.93826,18.85075 -4.69136,0.0853 c 0,0 -0.0419,-1.85299 -0.0853,-2.98542 -1.31002,2.15468 -4.55496,3.62771 -7.25027,3.5825 -2.64553,-0.0444 -5.20969,0.0107 -6.51188,-3.85865 -1.3022,-3.86934 -0.22659,-15.84509 -0.22659,-15.84509 z"
     id="path4365"
     inkscape:connector-curvature="0"
     sodipodi:nodetypes="ccszzcccccczc" />
  <path
     style="opacity:1;fill:#001f96;fill-opacity:1;stroke:none;stroke-width:1.7891134px;stroke-linecap:butt;stroke-linejoin:miter;stroke-opacity:1"
     d="m 276.64868,160.22435 c -4.56232,-0.12219 -9.7095,3.39699 -9.83312,9.52913 -0.004,4.99041 1.52482,8.83557 6.57638,10.55648 5.05156,1.72091 10.07076,-0.72334 10.07076,-0.72334 l 0.66392,-3.80186 c 0,0 -3.48709,0.76923 -5.90895,0.96444 -2.41627,0.044 -5.46465,-1.41611 -6.09417,-6.51349 3.24631,0.0342 9.0954,0.0535 13.6909,-0.11879 -0.13991,-8.64736 -3.40515,-9.83256 -9.16572,-9.89255 z m 0.30052,3.19735 c 4.42296,-0.0776 4.04299,4.52171 4.04299,4.52171 l -8.68699,-0.0594 c 0,0 0.0245,-4.38112 4.644,-4.4623 z"
     id="path4367"
     inkscape:connector-curvature="0" />
  <path
     id="path4372"
     d="m 327.55402,160.34499 c -4.56233,-0.12219 -9.7095,3.39699 -9.83313,9.52911 -0.004,4.99041 1.52483,8.83557 6.57639,10.55648 5.05156,1.72092 10.07076,-0.72334 10.07076,-0.72334 l 0.66392,-3.80186 c 0,0 -3.48709,0.76923 -5.90896,0.96444 -2.41627,0.044 -5.46465,-1.4161 -6.09416,-6.51348 3.24631,0.0342 9.0954,0.0535 13.6909,-0.1188 -0.13991,-8.64736 -3.40515,-9.83254 -9.16572,-9.89253 z m 0.30052,3.19735 c 4.42296,-0.0777 4.04298,4.52169 4.04298,4.52169 l -8.68698,-0.0594 c 0,0 0.0245,-4.38113 4.644,-4.46229 z"
     style="opacity:1;fill:#001f96;fill-opacity:1;stroke:none;stroke-width:1.7891134px;stroke-linecap:butt;stroke-linejoin:miter;stroke-opacity:1"
     inkscape:connector-curvature="0" />
  <path
     sodipodi:nodetypes="cccccccccsccccc"
     inkscape:connector-curvature="0"
     id="path4374"
     d="m 306.31433,157.22446 4.87621,-0.89721 v 4.6491 l 4.87623,0.16317 v 3.67033 l -5.04437,-0.0816 c 0,0 -0.28928,6.34275 -0.42037,10.1138 0.70622,1.53079 2.62653,1.98159 4.9603,1.46815 -0.21847,1.14793 -0.23765,1.57979 -0.42035,3.5072 -2.51863,0.56602 -6.64754,1.14748 -8.91172,-0.73408 -2.12423,-1.76524 -0.42037,-14.5182 -0.42037,-14.5182 h -2.69033 v -3.58877 h 2.94256 z"
     style="fill:#001f96;fill-opacity:1;stroke:none;stroke-width:1.22817802px;stroke-linecap:butt;stroke-linejoin:miter;stroke-opacity:1" />
  <path
     style="fill:#001f96;fill-opacity:1;stroke:none;stroke-width:1.7891134px;stroke-linecap:butt;stroke-linejoin:miter;stroke-opacity:1"
     d="m 289.59632,160.57849 -0.59708,18.85073 5.37374,0.0853 c 0,0 -0.066,-7.35981 0.25588,-11.60045 1.75722,-4.12437 6.65321,-3.2413 6.65321,-3.2413 0,0 0.0277,-2.68553 0,-4.43547 -4.25826,-0.12684 -6.65321,2.98541 -6.65321,2.98541 l -0.0853,-2.55892 z"
     id="path4376"
     inkscape:connector-curvature="0"
     sodipodi:nodetypes="ccccccccc" />
</svg>
